<svg xmlns="http://www.w3.org/2000/svg" version="1.1" xmlns:xlink="http://www.w3.org/1999/xlink" width="512" height="512" x="0" y="0" viewBox="0 0 24 25" style="enable-background:new 0 0 512 512" xml:space="preserve" class=""><g><linearGradient id="b" x1="12" x2="12" y1="-.076" y2="23.924" gradientUnits="userSpaceOnUse"><stop offset="0" stop-color="#003aff"></stop><stop offset="1" stop-color="#90a8f9"></stop></linearGradient><clipPath id="a"><path d="M0 .023h24v24H0z" fill="#000000" opacity="1" data-original="#000000"></path></clipPath><g clip-path="url(#a)"><path fill="url(#b)" d="M22.9.124c-.1-.1-.2-.2-.4-.2h-21c-.1 0-.3.1-.4.2-.1.1-.1.2-.1.4l2 20c0 .2.2.4.3.4l9 3h.4l8-3c.2-.1.3-.2.3-.4l2-20c0-.1 0-.3-.1-.4zm-11.1 18.3c-.1.1-.2.1-.3.1h-.1l-3.5-1c-.2-.1-.3-.2-.4-.4l-.5-2.5c-.1-.3.1-.5.4-.6s.5.1.6.4l.4 2.2 2.6.7v-11.3H5.5c-.3 0-.5-.2-.5-.5s.2-.5.5-.5h6c.3 0 .5.2.5.5v12.5c0 .1-.1.3-.2.4zm7.2-12.8-.5 2c-.1.3-.3.4-.6.4-.3-.1-.4-.3-.4-.6l.3-1.4h-3.9v5h3.5c.1 0 .3.1.4.2s.1.3.1.4l-1 5.5c0 .2-.2.3-.3.4l-3 1h-.2c-.2 0-.4-.1-.5-.3-.1-.3.1-.5.3-.6l2.7-.9.8-4.6h-3.4c-.3 0-.5-.2-.5-.5v-6c0-.3.2-.5.5-.5h5c.2 0 .3.1.4.2.3 0 .3.2.3.3z" opacity="1" data-original="url(#b)"></path></g></g></svg>